<svg width="98" height="98" viewBox="0 0 98 98" fill="none" xmlns="http://www.w3.org/2000/svg">
<g filter="url(#filter0_d_2_230)">
<rect x="24" y="18" width="50" height="50" rx="14" fill="white"/>
</g>
<path d="M50.2006 40.1525C49.5561 40.1525 49.0567 40.6519 49.0567 41.2685C49.0567 41.8851 49.5561 42.3845 50.2006 42.3845C50.7892 42.3845 51.2887 41.8851 51.2887 41.2685C51.2887 40.6519 50.7892 40.1525 50.2006 40.1525ZM42.3885 40.1525C41.744 40.1525 41.2446 40.6519 41.2446 41.2685C41.2446 41.8851 41.744 42.3845 42.3885 42.3845C42.9772 42.3845 43.4766 41.8851 43.4766 41.2685C43.4766 40.6519 42.9772 40.1525 42.3885 40.1525Z" fill="#261D56"/>
<path d="M59.1567 38.0321C57.8147 36.1907 55.9398 34.9603 53.8836 34.4051V34.4078C53.4065 33.8777 52.868 33.3895 52.2654 32.9543C47.6981 29.6341 41.2867 30.6469 37.9526 35.2142C35.2659 38.9249 35.3802 43.9162 38.12 47.4623L38.1424 51.1619C38.1424 51.2511 38.1563 51.3404 38.1842 51.4241C38.3321 51.8956 38.8343 52.1551 39.303 52.0072L42.8351 50.894C43.7698 51.226 44.7351 51.4157 45.6949 51.4688L45.681 51.4799C48.1669 53.2906 51.4256 53.8347 54.4137 52.847L57.9598 54.0021C58.0491 54.03 58.1411 54.0467 58.236 54.0467C58.7298 54.0467 59.1288 53.6478 59.1288 53.1539V49.4153C61.5868 46.0785 61.651 41.4666 59.1567 38.0321ZM43.2257 48.9131L42.8909 48.7736L40.1288 49.6385L40.1009 46.7369L39.8777 46.4858C37.5174 43.6065 37.3612 39.4578 39.5708 36.4139C42.2604 32.7255 47.4163 31.9108 51.0936 34.5725C54.782 37.2537 55.5994 42.4012 52.935 46.0673C50.7002 49.1335 46.6993 50.2663 43.2257 48.9131ZM57.3153 48.4388L57.0921 48.7178L57.12 51.6194L54.3858 50.6987L54.051 50.8382C52.4886 51.4185 50.8229 51.466 49.2801 51.0335L49.2745 51.0307C51.3363 50.3974 53.2056 49.114 54.5532 47.267C56.6847 44.3291 57.0307 40.6379 55.7919 37.4908L55.8087 37.502C56.4504 37.9623 57.0391 38.5371 57.5385 39.2318C59.564 42.0106 59.4496 45.7939 57.3153 48.4388Z" fill="#261D56"/>
<path d="M46.2946 40.1525C45.6501 40.1525 45.1507 40.6519 45.1507 41.2685C45.1507 41.8851 45.6501 42.3845 46.2946 42.3845C46.8833 42.3845 47.3827 41.8851 47.3827 41.2685C47.3827 40.6519 46.8833 40.1525 46.2946 40.1525Z" fill="#261D56"/>
<defs>
<filter id="filter0_d_2_230" x="0" y="0" width="98" height="98" filterUnits="userSpaceOnUse" color-interpolation-filters="sRGB">
<feFlood flood-opacity="0" result="BackgroundImageFix"/>
<feColorMatrix in="SourceAlpha" type="matrix" values="0 0 0 0 0 0 0 0 0 0 0 0 0 0 0 0 0 0 127 0" result="hardAlpha"/>
<feOffset dy="6"/>
<feGaussianBlur stdDeviation="12"/>
<feColorMatrix type="matrix" values="0 0 0 0 0.716667 0 0 0 0 0.716667 0 0 0 0 0.716667 0 0 0 0.4 0"/>
<feBlend mode="normal" in2="BackgroundImageFix" result="effect1_dropShadow_2_230"/>
<feBlend mode="normal" in="SourceGraphic" in2="effect1_dropShadow_2_230" result="shape"/>
</filter>
</defs>
</svg>
