<svg width="98" height="98" viewBox="0 0 98 98" fill="none" xmlns="http://www.w3.org/2000/svg">
<g filter="url(#filter0_d_2_236)">
<rect x="24" y="18" width="50" height="50" rx="14" fill="white"/>
</g>
<path d="M40.5043 53.0013C40.018 53.0021 39.5337 52.9382 39.0643 52.8113C37.6552 52.4094 36.4597 51.4713 35.7343 50.1982C35.009 48.925 34.8115 47.4183 35.1843 46.0013L37.5143 37.1613C37.6957 36.4458 38.0183 35.7739 38.4631 35.1849C38.9079 34.5958 39.4658 34.1016 40.1043 33.7313C40.7259 33.3712 41.4128 33.1381 42.1252 33.0454C42.8375 32.9527 43.5612 33.0023 44.2543 33.1913C44.991 33.3958 45.6772 33.7513 46.2694 34.235C46.8616 34.7187 47.3468 35.3202 47.6943 36.0013H50.2943C50.6403 35.3191 51.125 34.7167 51.7174 34.2328C52.3098 33.7489 52.9968 33.3942 53.7343 33.1913C54.4273 33.0023 55.151 32.9527 55.8634 33.0454C56.5758 33.1381 57.2626 33.3712 57.8843 33.7313C58.5196 34.1007 59.0755 34.5922 59.5201 35.1774C59.9646 35.7627 60.2889 36.4301 60.4743 37.1413L62.8043 46.0013C63.1826 47.4225 62.9867 48.9354 62.2589 50.2134C61.531 51.4913 60.3296 52.4317 58.9143 52.8313C58.2212 53.0202 57.4975 53.0698 56.7852 52.9771C56.0728 52.8844 55.3859 52.6513 54.7643 52.2913C54.1279 51.9232 53.5712 51.4321 53.1265 50.8466C52.6818 50.2612 52.3581 49.5931 52.1743 48.8813L51.9943 48.0013H45.9943L45.7643 48.8613C45.5804 49.5731 45.2567 50.2412 44.8121 50.8266C44.3674 51.4121 43.8106 51.9032 43.1743 52.2713C42.3618 52.7399 41.4422 52.9913 40.5043 53.0013ZM42.8243 35.0013C42.2208 35.0033 41.6282 35.1618 41.1043 35.4613C40.2831 35.943 39.6863 36.7305 39.4443 37.6513L37.1143 46.4913C36.8705 47.402 36.9937 48.372 37.4574 49.1929C37.9211 50.0138 38.6884 50.62 39.5943 50.8813C40.0318 51.0006 40.4886 51.032 40.9383 50.9736C41.388 50.9153 41.8217 50.7683 42.2143 50.5413C42.623 50.3053 42.9804 49.99 43.2655 49.6139C43.5505 49.2378 43.7575 48.8085 43.8743 48.3513L44.4943 46.0013H53.4943L54.1043 48.3513C54.2231 48.8076 54.4309 49.2361 54.7158 49.6119C55.0006 49.9877 55.357 50.3036 55.7643 50.5413C56.1588 50.7681 56.5941 50.9149 57.0454 50.9732C57.4967 51.0316 57.9551 51.0003 58.3943 50.8813C59.3013 50.6224 60.0695 50.0162 60.532 49.1942C60.9945 48.3721 61.1139 47.4008 60.8643 46.4913L58.5343 37.6513C58.4182 37.1951 58.2125 36.7665 57.9292 36.3905C57.646 36.0146 57.2908 35.6987 56.8843 35.4613C56.4898 35.2344 56.0544 35.0876 55.6031 35.0293C55.1518 34.971 54.6935 35.0022 54.2543 35.1213C53.7111 35.2761 53.2127 35.5583 52.8006 35.9444C52.3884 36.3305 52.0742 36.8094 51.8843 37.3413L51.6443 38.0013H46.3443L46.1043 37.3413C45.9126 36.8087 45.5967 36.3294 45.1828 35.9434C44.7689 35.5573 44.2689 35.2754 43.7243 35.1213C43.4308 35.0421 43.1282 35.0018 42.8243 35.0013Z" fill="#261D56"/>
<path d="M42.9941 43.0012C42.5986 43.0012 42.2119 42.8839 41.883 42.6642C41.5541 42.4444 41.2978 42.132 41.1464 41.7666C40.995 41.4011 40.9554 40.999 41.0326 40.611C41.1097 40.2231 41.3002 39.8667 41.5799 39.587C41.8596 39.3073 42.216 39.1168 42.604 39.0397C42.9919 38.9625 43.3941 39.0021 43.7595 39.1535C44.125 39.3048 44.4373 39.5612 44.6571 39.8901C44.8768 40.219 44.9941 40.6057 44.9941 41.0012C44.9941 41.5317 44.7834 42.0404 44.4084 42.4154C44.0333 42.7905 43.5246 43.0012 42.9941 43.0012Z" fill="#261D56"/>
<path d="M54.9941 40.0012C55.5464 40.0012 55.9941 39.5535 55.9941 39.0012C55.9941 38.4489 55.5464 38.0012 54.9941 38.0012C54.4419 38.0012 53.9941 38.4489 53.9941 39.0012C53.9941 39.5535 54.4419 40.0012 54.9941 40.0012Z" fill="#261D56"/>
<path d="M54.9941 44.0012C55.5464 44.0012 55.9941 43.5535 55.9941 43.0012C55.9941 42.4489 55.5464 42.0012 54.9941 42.0012C54.4419 42.0012 53.9941 42.4489 53.9941 43.0012C53.9941 43.5535 54.4419 44.0012 54.9941 44.0012Z" fill="#261D56"/>
<path d="M52.9941 42.0012C53.5464 42.0012 53.9941 41.5535 53.9941 41.0012C53.9941 40.4489 53.5464 40.0012 52.9941 40.0012C52.4419 40.0012 51.9941 40.4489 51.9941 41.0012C51.9941 41.5535 52.4419 42.0012 52.9941 42.0012Z" fill="#261D56"/>
<path d="M56.9941 42.0012C57.5464 42.0012 57.9941 41.5535 57.9941 41.0012C57.9941 40.4489 57.5464 40.0012 56.9941 40.0012C56.4419 40.0012 55.9941 40.4489 55.9941 41.0012C55.9941 41.5535 56.4419 42.0012 56.9941 42.0012Z" fill="#261D56"/>
<defs>
<filter id="filter0_d_2_236" x="0" y="0" width="98" height="98" filterUnits="userSpaceOnUse" color-interpolation-filters="sRGB">
<feFlood flood-opacity="0" result="BackgroundImageFix"/>
<feColorMatrix in="SourceAlpha" type="matrix" values="0 0 0 0 0 0 0 0 0 0 0 0 0 0 0 0 0 0 127 0" result="hardAlpha"/>
<feOffset dy="6"/>
<feGaussianBlur stdDeviation="12"/>
<feColorMatrix type="matrix" values="0 0 0 0 0.716667 0 0 0 0 0.716667 0 0 0 0 0.716667 0 0 0 0.4 0"/>
<feBlend mode="normal" in2="BackgroundImageFix" result="effect1_dropShadow_2_236"/>
<feBlend mode="normal" in="SourceGraphic" in2="effect1_dropShadow_2_236" result="shape"/>
</filter>
</defs>
</svg>
