<svg width="30" height="26" viewBox="0 0 30 26" fill="none" xmlns="http://www.w3.org/2000/svg">
<path fill-rule="evenodd" clip-rule="evenodd" d="M0 2.14286C0 1.57454 0.225765 1.02949 0.627628 0.627629C1.02949 0.225765 1.57454 0 2.14286 0H27.8571C28.4255 0 28.9705 0.225765 29.3724 0.627629C29.7742 1.02949 30 1.57454 30 2.14286C30 2.71118 29.7742 3.25622 29.3724 3.65809C28.9705 4.05995 28.4255 4.28571 27.8571 4.28571H2.14286C1.57454 4.28571 1.02949 4.05995 0.627628 3.65809C0.225765 3.25622 0 2.71118 0 2.14286Z" fill="#C8CAD0"/>
<path fill-rule="evenodd" clip-rule="evenodd" d="M0 12.8572C0 12.2888 0.225765 11.7438 0.627628 11.3419C1.02949 10.9401 1.57454 10.7143 2.14286 10.7143H27.8571C28.4255 10.7143 28.9705 10.9401 29.3724 11.3419C29.7742 11.7438 30 12.2888 30 12.8572C30 13.4255 29.7742 13.9705 29.3724 14.3724C28.9705 14.7742 28.4255 15 27.8571 15H2.14286C1.57454 15 1.02949 14.7742 0.627628 14.3724C0.225765 13.9705 0 13.4255 0 12.8572Z" fill="#C8CAD0"/>
<path fill-rule="evenodd" clip-rule="evenodd" d="M0 23.5714C0 23.0031 0.225765 22.458 0.627628 22.0562C1.02949 21.6543 1.57454 21.4285 2.14286 21.4285H15C15.5683 21.4285 16.1134 21.6543 16.5152 22.0562C16.9171 22.458 17.1429 23.0031 17.1429 23.5714C17.1429 24.1397 16.9171 24.6848 16.5152 25.0866C16.1134 25.4885 15.5683 25.7142 15 25.7142H2.14286C1.57454 25.7142 1.02949 25.4885 0.627628 25.0866C0.225765 24.6848 0 24.1397 0 23.5714Z" fill="#C8CAD0"/>
</svg>
